# xmcd
#
# Track frame offsets:
#	150
#	14765
#	24812
#	45007
#	57370
#	67242
#	80412
#	97077
#	112260
#	124210
#	140350
#	163997
#	187852
#	204010
#	219507
#	237400
#	257712
#	269427
#	285247
#	304745
#
# Disc length: 4435 seconds
#
# Revision: 4
# Processed by: cddbd v1.5.2PL0 Copyright (c) Steve Scherf et al.
# Submitted via: audiograbber 1.83.01
#
DISCID=1f115114
DTITLE=Campbell, Glen - Presents his greatest hits in concert
DYEAR=1994
DGENRE=Country
TTITLE0=Rhinestone cowboy
TTITLE1=Gentle on my mind
TTITLE2=Wichita Lineman (Medley)
TTITLE3=By the time I get to Phoenix
TTITLE4=Dreams of the everyday housewife
TTITLE5=Heartache number three
TTITLE6=Please come to Boston
TTITLE7=Trials and tribulations
TTITLE8=It's only make believe
TTITLE9=Crying
TTITLE10=Blue grass medley
TTITLE11=Milk cow blues
TTITLE12=Rollin' (in my sweet baby's arms)
TTITLE13=I'm so lonesome I could cry
TTITLE14=Southern nights
TTITLE15=Amazing grace
TTITLE16=Try a little kindness
TTITLE17=In your loving arms again
TTITLE18=It's your world boys and girls
TTITLE19=Mull of Kintyre
EXTD=
EXTT0=
EXTT1=
EXTT2=
EXTT3=
EXTT4=
EXTT5=
EXTT6=
EXTT7=
EXTT8=
EXTT9=
EXTT10=
EXTT11=
EXTT12=
EXTT13=
EXTT14=
EXTT15=
EXTT16=
EXTT17=
EXTT18=
EXTT19=
PLAYORDER=
